<svg xmlns="http://www.w3.org/2000/svg" width="1200" height="675" viewBox="0 0 1200 675" role="img" aria-labelledby="title desc">
  <title id="title">Agent 训练与对抗平台</title>
  <desc id="desc">A calm generated natural landscape for General.</desc>
  <defs>
    <linearGradient id="sky" x1="0" y1="0" x2="0" y2="1">
      <stop offset="0" stop-color="#e6f3ff"/>
      <stop offset="1" stop-color="#fff6f0"/>
    </linearGradient>
    <linearGradient id="water" x1="0" y1="0" x2="1" y2="1">
      <stop offset="0" stop-color="#2f97c0" stop-opacity="0.9"/>
      <stop offset="1" stop-color="#f7fffb"/>
    </linearGradient>
    <linearGradient id="field" x1="0" y1="0" x2="1" y2="1">
      <stop offset="0" stop-color="#78b98f" stop-opacity="0.92"/>
      <stop offset="1" stop-color="#eff8d6"/>
    </linearGradient>
    <filter id="soft" x="-20%" y="-20%" width="140%" height="140%">
      <feGaussianBlur stdDeviation="14"/>
    </filter>
  </defs>
  <rect width="1200" height="675" fill="url(#sky)"/>
  <circle cx="297" cy="185" r="62" fill="#ff8f66" opacity="0.82"/>
  <circle cx="297" cy="185" r="102" fill="#ff8f66" opacity="0.18" filter="url(#soft)"/>
  <g fill="#ffffff" opacity="0.72">
    <ellipse cx="343" cy="132" rx="96" ry="24"/>
    <ellipse cx="413" cy="116" rx="62" ry="21"/>
    <ellipse cx="777" cy="164" rx="112" ry="26"/>
    <ellipse cx="863" cy="146" rx="72" ry="22"/>
  </g>
  <path d="M0 366 L201 170 L430 352 L580 126 L782 352 L852 188 L1200 362 L1200 675 L0 675 Z" fill="#9eb4d5" opacity="0.62"/>
  <path d="M0 420 L226 274 L415 405 L615 228 L815 405 L1008 292 L1200 410 L1200 675 L0 675 Z" fill="#4e72a8" opacity="0.9"/>
  <path d="M0 464 C180 430 302 488 488 454 C650 424 802 436 1200 400 L1200 675 L0 675 Z" fill="url(#water)" opacity="0.95"/>
  <path d="M0 538 C168 508 338 532 510 506 C718 474 930 494 1200 456 L1200 675 L0 675 Z" fill="url(#field)" opacity="0.94"/>
  <path d="M146 505 C238 458 380 464 493 500 C398 526 224 531 146 505 Z" fill="#f1f8df" opacity="0.92"/>
  <g fill="none" stroke="#ffffff" stroke-linecap="round" opacity="0.52">
    <path d="M92 468 C240 454 318 488 455 470"/>
    <path d="M625 444 C760 430 842 458 1000 438"/>
    <path d="M154 585 C326 550 532 568 725 538"/>
    <path d="M776 570 C916 542 1042 546 1140 518"/>
  </g>
  <g opacity="0.16" fill="#4e72a8">
    <circle cx="112" cy="614" r="6"/>
    <circle cx="168" cy="598" r="4"/>
    <circle cx="914" cy="614" r="5"/>
    <circle cx="1048" cy="586" r="4"/>
  </g>
</svg>
